<svg width="43" height="43" viewBox="0 0 43 43" fill="none" xmlns="http://www.w3.org/2000/svg">
<g filter="url(#filter0_d)">
<path d="M21.494 4.2361L20.3231 3.5804L19.1512 4.2361L17.9798 3.5804L16.8089 4.2361L15.638 3.5804L14.4672 4.2361L13.0294 3.43001L13.5643 2.47626L14.4672 2.98212L15.638 2.32642L16.8089 2.98212L17.9798 2.32642L19.1512 2.98212L20.3231 2.32642L21.494 2.98212L22.6643 2.32642L23.8357 2.98267L25.0077 2.32696L26.1807 2.98267L27.3532 2.32696L28.5284 2.98267L29.4368 2.47571L29.9695 3.43056L28.5284 4.23556L27.3532 3.57985L26.1807 4.23556L25.0077 3.57985L23.8357 4.23556L22.6643 3.5804L21.494 4.2361Z" fill="#55CB95"/>
<path d="M13.0601 7.03609L11.3888 6.09874L11.9237 5.14499L13.0601 5.7821L14.4655 4.99515L15.8705 5.7821L17.2759 4.99515L18.6814 5.7821L20.0874 4.99515L21.4934 5.7821L22.8973 4.99515L24.3027 5.7821L25.7093 4.99569L27.117 5.78265L28.5246 4.99569L29.9339 5.78265L31.0774 5.14444L31.6101 6.09929L29.9339 7.03554L28.5246 6.24859L27.117 7.03554L25.7093 6.24859L24.3027 7.03609L22.8973 6.24913L21.4934 7.03609L20.0874 6.24913L18.6814 7.03609L17.2759 6.24913L15.8705 7.03609L14.4655 6.24913L13.0601 7.03609Z" fill="#55CB95"/>
<path d="M35.1719 21.875H37.8751L34.3592 16.9531H33.5313V14.2188H30.7969V8.75H33.353L28.9364 0.546875H14.0636L9.64705 8.75H12.2031V14.2188H9.46876V16.9531H8.64025L5.12439 21.875H7.82814V33.3594H6.73439V34.4531H36.2656V33.3594H35.1719V21.875ZM32.4375 16.9531H31.3438V15.3125H32.4375V16.9531ZM29.1563 15.3125H30.25V16.9531H29.1563V15.3125ZM14.7177 1.64062H28.2829L31.5226 7.65625H11.478L14.7177 1.64062ZM13.8438 16.9531H12.75V15.3125H13.8438V16.9531ZM10.5625 15.3125H11.6563V16.9531H10.5625V15.3125ZM8.92189 21.875H11.1094V20.7812H7.25009L9.20298 18.0469H14.3906V17.5H14.9375V15.3125H18.2188V14.2188H13.2969V8.75H29.7031V14.2188H24.7813V15.3125H28.0625V17.5H28.6094V18.0469H33.7965L35.7494 20.7812H31.8906V21.875H34.0781V33.3594H32.9844V31.7188H31.8906V33.3594H27.5156V31.7188H26.4219V33.3594H24.7813V24.6094H18.2188V33.3594H16.5781V31.7188H15.4844V33.3594H11.1094V31.7188H10.0156V33.3594H8.92189V21.875ZM23.6875 33.3594H19.3125V25.7031H23.6875V33.3594Z" fill="#55CB95"/>
<path d="M21.5 23.5156C23.0077 23.5156 24.2344 22.289 24.2344 20.7812C24.2344 19.2735 23.0077 18.0469 21.5 18.0469C19.9923 18.0469 18.7656 19.2735 18.7656 20.7812C18.7656 22.289 19.9923 23.5156 21.5 23.5156ZM19.96 21.3281H20.9531V22.3213C20.4899 22.1561 20.1252 21.7913 19.96 21.3281ZM22.0469 22.3213V21.3281H23.04C22.8748 21.7913 22.5101 22.1561 22.0469 22.3213ZM23.04 20.2344H22.0469V19.2412C22.5101 19.4064 22.8748 19.7712 23.04 20.2344ZM20.9531 19.2412V20.2344H19.96C20.1252 19.7712 20.4899 19.4064 20.9531 19.2412Z" fill="#55CB95"/>
<path d="M13.8438 21.3281H12.75V28.4375H13.8438V21.3281Z" fill="#55CB95"/>
<path d="M30.25 21.3281H29.1562V28.4375H30.25V21.3281Z" fill="#55CB95"/>
<path d="M21.5 28.9844H20.4062V30.0781H21.5V28.9844Z" fill="#55CB95"/>
<path d="M28.6094 9.84375H25.3281V13.125H28.6094V9.84375ZM27.5156 12.0312H26.4219V10.9375H27.5156V12.0312Z" fill="#55CB95"/>
<path d="M14.3906 13.125H17.6719V9.84375H14.3906V13.125ZM15.4844 10.9375H16.5781V12.0312H15.4844V10.9375Z" fill="#55CB95"/>
<path d="M38.4531 33.3594H37.3594V34.4531H38.4531V33.3594Z" fill="#55CB95"/>
<path d="M5.64062 33.3594H4.54688V34.4531H5.64062V33.3594Z" fill="#55CB95"/>
<path d="M15.4844 32.2656H11.1094C10.2048 32.2656 9.46875 31.5295 9.46875 30.625C9.46875 29.8523 10.0058 29.202 10.7266 29.0292C11.0279 28.3511 11.7098 27.8906 12.4766 27.8906C12.7626 27.8906 13.0409 27.9546 13.2969 28.0788C13.5528 27.9546 13.8312 27.8906 14.1172 27.8906C14.8839 27.8906 15.5659 28.3511 15.8672 29.0292C16.588 29.202 17.125 29.8523 17.125 30.625C17.125 31.5295 16.3889 32.2656 15.4844 32.2656Z" fill="#55CB95"/>
<path d="M31.8906 32.2656H27.5156C26.6111 32.2656 25.875 31.5295 25.875 30.625C25.875 29.8523 26.412 29.202 27.1328 29.0292C27.4341 28.3511 28.1161 27.8906 28.8828 27.8906C29.1688 27.8906 29.4472 27.9546 29.7031 28.0788C29.9591 27.9546 30.2374 27.8906 30.5234 27.8906C31.2902 27.8906 31.9721 28.3511 32.2734 29.0292C32.9942 29.202 33.5312 29.8523 33.5312 30.625C33.5312 31.5295 32.7952 32.2656 31.8906 32.2656Z" fill="#55CB95"/>
<path d="M30.7887 22.4219H30.6175C30.2631 22.4219 29.9115 22.3043 29.6277 22.0916L21.5 15.9961L13.3718 22.0916C13.0885 22.3043 12.7374 22.4219 12.3825 22.4219H12.2113C11.3024 22.4219 10.5625 21.682 10.5625 20.7731C10.5625 20.2677 10.8009 19.7816 11.1991 19.4715L20.1859 12.4824C20.9334 11.9006 22.0666 11.9006 22.8147 12.4824L31.802 19.472C32.1991 19.7816 32.4375 20.2683 32.4375 20.7731C32.4375 21.682 31.6976 22.4219 30.7887 22.4219Z" fill="#55CB95"/>
</g>
<defs>
<filter id="filter0_d" x="0" y="0" width="43" height="43" filterUnits="userSpaceOnUse" color-interpolation-filters="sRGB">
<feFlood flood-opacity="0" result="BackgroundImageFix"/>
<feColorMatrix in="SourceAlpha" type="matrix" values="0 0 0 0 0 0 0 0 0 0 0 0 0 0 0 0 0 0 127 0" result="hardAlpha"/>
<feOffset dy="4"/>
<feGaussianBlur stdDeviation="2"/>
<feComposite in2="hardAlpha" operator="out"/>
<feColorMatrix type="matrix" values="0 0 0 0 0 0 0 0 0 0 0 0 0 0 0 0 0 0 0.25 0"/>
<feBlend mode="normal" in2="BackgroundImageFix" result="effect1_dropShadow"/>
<feBlend mode="normal" in="SourceGraphic" in2="effect1_dropShadow" result="shape"/>
</filter>
</defs>
</svg>
