<svg width="35" height="35" viewBox="0 0 35 35" fill="none" xmlns="http://www.w3.org/2000/svg">
<path d="M31.1719 21.875H33.8751L30.3592 16.9531H29.5313V14.2188H26.7969V8.75H29.353L24.9364 0.546875H10.0636L5.64705 8.75H8.20314V14.2188H5.46876V16.9531H4.64025L1.12439 21.875H3.82814V33.3594H2.73439V34.4531H32.2656V33.3594H31.1719V21.875ZM28.4375 16.9531H27.3438V15.3125H28.4375V16.9531ZM25.1563 15.3125H26.25V16.9531H25.1563V15.3125ZM10.7177 1.64062H24.2829L27.5226 7.65625H7.47798L10.7177 1.64062ZM9.84376 16.9531H8.75001V15.3125H9.84376V16.9531ZM6.56251 15.3125H7.65626V16.9531H6.56251V15.3125ZM4.92189 21.875H7.10939V20.7812H3.25009L5.20298 18.0469H10.3906V17.5H10.9375V15.3125H14.2188V14.2188H9.29689V8.75H25.7031V14.2188H20.7813V15.3125H24.0625V17.5H24.6094V18.0469H29.7965L31.7494 20.7812H27.8906V21.875H30.0781V33.3594H28.9844V31.7188H27.8906V33.3594H23.5156V31.7188H22.4219V33.3594H20.7813V24.6094H14.2188V33.3594H12.5781V31.7188H11.4844V33.3594H7.10939V31.7188H6.01564V33.3594H4.92189V21.875ZM19.6875 33.3594H15.3125V25.7031H19.6875V33.3594Z" fill="#C8C8C8"/>
<path d="M17.5 23.5156C19.0077 23.5156 20.2344 22.289 20.2344 20.7812C20.2344 19.2735 19.0077 18.0469 17.5 18.0469C15.9923 18.0469 14.7656 19.2735 14.7656 20.7812C14.7656 22.289 15.9923 23.5156 17.5 23.5156ZM15.96 21.3281H16.9531V22.3213C16.4899 22.1561 16.1252 21.7913 15.96 21.3281ZM18.0469 22.3213V21.3281H19.04C18.8748 21.7913 18.5101 22.1561 18.0469 22.3213ZM19.04 20.2344H18.0469V19.2412C18.5101 19.4064 18.8748 19.7712 19.04 20.2344ZM16.9531 19.2412V20.2344H15.96C16.1252 19.7712 16.4899 19.4064 16.9531 19.2412Z" fill="#C8C8C8"/>
<path d="M9.84375 21.3281H8.75V28.4375H9.84375V21.3281Z" fill="#C8C8C8"/>
<path d="M26.25 21.3281H25.1562V28.4375H26.25V21.3281Z" fill="#C8C8C8"/>
<path d="M17.5 28.9844H16.4062V30.0781H17.5V28.9844Z" fill="#C8C8C8"/>
<path d="M24.6094 9.84375H21.3281V13.125H24.6094V9.84375ZM23.5156 12.0312H22.4219V10.9375H23.5156V12.0312Z" fill="#C8C8C8"/>
<path d="M10.3906 13.125H13.6719V9.84375H10.3906V13.125ZM11.4844 10.9375H12.5781V12.0312H11.4844V10.9375Z" fill="#C8C8C8"/>
<path d="M34.4531 33.3594H33.3594V34.4531H34.4531V33.3594Z" fill="#C8C8C8"/>
<path d="M1.64062 33.3594H0.546875V34.4531H1.64062V33.3594Z" fill="#C8C8C8"/>
</svg>
