<svg width="50" height="50" viewBox="0 0 50 38" fill="none" xmlns="http://www.w3.org/2000/svg">
<path d="M14.6086 13.3482H35.3915V17.7505H14.6086V13.3482Z" fill="#918291"/>
<path d="M46.91 34.5752H3.09141C1.16944 34.5752 -0.286129 32.8375 0.0489296 30.9432L2.04463 19.6592C2.30586 18.182 3.58848 17.1055 5.08711 17.1055H44.9142C46.4129 17.1055 47.6954 18.1819 47.9568 19.6592L49.9526 30.9432C50.2876 32.8376 48.832 34.5752 46.91 34.5752Z" fill="#ACA6D6"/>
<path d="M49.9518 30.9442L47.956 19.6601C47.6948 18.1829 46.4122 17.1065 44.9136 17.1065H44.5535C44.7419 17.4217 44.8768 17.7745 44.944 18.1541C45.0911 18.9707 45.2381 19.7873 45.3851 20.6039C46.5544 27.0979 41.5635 33.0679 34.9651 33.0683C23.4561 33.0689 11.9472 33.0695 0.438171 33.0701C0.973425 33.9639 1.94989 34.5762 3.09071 34.5762H46.9094C48.8312 34.5761 50.2869 32.8385 49.9518 30.9442Z" fill="#978ECB"/>
<path d="M3.25028 30.9912L5.09706 20.5496C5.13094 20.3578 5.29774 20.218 5.49256 20.218L44.5075 20.2181C44.7023 20.2181 44.869 20.3579 44.903 20.5497L46.7498 30.9912C46.7932 31.2372 46.6041 31.4628 46.3544 31.4628H3.64569C3.39598 31.4628 3.20672 31.2372 3.25028 30.9912Z" fill="#FAF7F7"/>
<path d="M45.4757 23.7881C45.0809 26.9842 43.2363 29.7949 40.5747 31.4628H46.3543C46.6041 31.4628 46.7933 31.2372 46.7497 30.9912L45.4757 23.7881Z" fill="#F3EAE6"/>
<path d="M21.2343 29.2864C21.0479 29.2864 20.8596 29.2639 20.6727 29.2178C19.6737 28.9717 18.976 28.0656 18.976 27.0144V24.6272C18.976 23.5759 19.6737 22.6698 20.6727 22.4239C21.364 22.2533 22.0762 22.4035 22.6269 22.8352C23.1779 23.2669 23.4939 23.9158 23.4939 24.6155V27.0264C23.4939 27.7261 23.1779 28.375 22.6269 28.8067C22.2252 29.1216 21.7372 29.2864 21.2343 29.2864ZM21.235 23.8609C21.1725 23.8609 21.1051 23.8685 21.0329 23.8862C20.7136 23.9648 20.482 24.2765 20.482 24.6272V27.0144C20.482 27.3651 20.7136 27.6769 21.0329 27.7555C21.3596 27.8357 21.59 27.706 21.6981 27.6212C21.8824 27.4769 21.988 27.26 21.988 27.0263V24.6154C21.988 24.3817 21.8823 24.1648 21.6981 24.0205C21.6138 23.9545 21.4555 23.8609 21.235 23.8609Z" fill="#918291"/>
<path d="M28.7643 29.2868C28.578 29.2868 28.3897 29.2643 28.2028 29.2182C27.2038 28.9723 26.506 28.0661 26.506 27.0147V24.6276C26.506 23.5763 27.2038 22.6702 28.2028 22.4243C28.8941 22.2538 29.6064 22.4039 30.1571 22.8355C30.708 23.2673 31.024 23.9162 31.024 24.6159V27.0268C31.024 27.7265 30.708 28.3754 30.1571 28.8071C29.7553 29.122 29.2673 29.2868 28.7643 29.2868ZM28.765 23.8613C28.7025 23.8613 28.635 23.8688 28.5628 23.8866C28.2435 23.9652 28.0119 24.2768 28.0119 24.6276V27.0147C28.0119 27.3655 28.2435 27.6772 28.5628 27.7559C28.8897 27.8361 29.12 27.7063 29.2281 27.6216C29.4124 27.4772 29.518 27.2603 29.518 27.0267V24.6158C29.518 24.3821 29.4123 24.1652 29.2281 24.0209C29.1439 23.9549 28.9855 23.8613 28.765 23.8613Z" fill="#918291"/>
<path d="M25.4758 28.9822C25.7699 28.6882 25.7699 28.2114 25.4758 27.9174C25.1818 27.6234 24.7051 27.6234 24.4111 27.9174C24.117 28.2114 24.117 28.6882 24.4111 28.9822C24.7051 29.2762 25.1818 29.2762 25.4758 28.9822Z" fill="#918291"/>
<path d="M14.6086 13.9932H35.3915V17.1056H14.6086V13.9932Z" fill="#918291"/>
<path d="M32.3795 13.9932H35.3915V17.1056H32.3795V13.9932Z" fill="#7A6D79"/>
<path d="M38.9778 13.9932H11.0221C10.4521 13.9932 9.99011 13.5312 9.99011 12.9611V9.80947H40.0098V12.9611C40.0098 13.5311 39.5478 13.9932 38.9778 13.9932Z" fill="#ACA6D6"/>
<path d="M36.9979 10.8807V12.961C36.9979 13.5311 36.5358 13.9931 35.9658 13.9931H38.9778C39.5479 13.9931 40.0099 13.5311 40.0099 12.961V10.8807H36.9979Z" fill="#978ECB"/>
<path d="M48.3913 3.0294L48.308 3.42295L47.2679 8.36465C46.9576 9.83252 45.6685 10.8807 44.1755 10.8807H5.82449C4.33153 10.8807 3.04237 9.83252 2.73211 8.36465L1.6077 3.09365L48.3913 3.0294Z" fill="#F3EAE6"/>
<path d="M48.308 3.42295L47.2678 8.36465C46.9576 9.83252 45.6684 10.8807 44.1755 10.8807H41.1635C42.6564 10.8807 43.9456 9.83252 44.2557 8.36465L45.3039 3.42295H48.308Z" fill="#E1D3CE"/>
<path d="M48.3651 0.211914H1.63486C0.759759 0.211914 0.0503845 0.930664 0.0503845 1.81738C0.0503845 2.7041 0.759759 3.42285 1.63486 3.42285H48.3651C49.2401 3.42285 49.9495 2.704 49.9495 1.81738C49.9495 0.930762 49.2401 0.211914 48.3651 0.211914Z" fill="#ACA6D6"/>
<path d="M48.3651 0.212914H45.3531C46.2282 0.212914 46.9375 0.931664 46.9375 1.81838C46.9375 2.7051 46.2281 3.42385 45.3531 3.42385H48.3651C49.2401 3.42385 49.9495 2.7051 49.9495 1.81838C49.9495 0.931664 49.2401 0.212914 48.3651 0.212914Z" fill="#978ECB"/>
<path d="M11.6676 37.7881H5.90312C5.33242 37.7881 4.86972 37.3254 4.86972 36.7547V34.5752H12.701V36.7546C12.701 37.3254 12.2383 37.7881 11.6676 37.7881Z" fill="#918291"/>
<path d="M9.68898 34.5752V36.7546C9.68898 37.3253 9.22628 37.788 8.65558 37.788H11.6676C12.2383 37.788 12.701 37.3253 12.701 36.7546V34.5752H9.68898Z" fill="#7A6D79"/>
<path d="M44.0969 37.7881H38.3324C37.7617 37.7881 37.299 37.3254 37.299 36.7547V34.5752H45.1303V36.7546C45.1303 37.3254 44.6677 37.7881 44.0969 37.7881Z" fill="#918291"/>
<path d="M42.1183 34.5752V36.7546C42.1183 37.3253 41.6556 37.788 41.0849 37.788H44.0969C44.6676 37.788 45.1303 37.3253 45.1303 36.7546V34.5752H42.1183Z" fill="#7A6D79"/>
</svg>
