<svg width="29" height="35" viewBox="0 0 29 35" fill="none" xmlns="http://www.w3.org/2000/svg">
<path d="M27.0781 5.46875H18.875V10.9375H27.0781V5.46875Z" fill="#C8C8C8"/>
<path d="M14.5 26.7969C10.58 26.7969 7.39062 23.6075 7.39062 19.6875C7.39062 15.7675 10.58 12.5781 14.5 12.5781C18.42 12.5781 21.6094 15.7675 21.6094 19.6875C21.6094 23.6075 18.42 26.7969 14.5 26.7969Z" fill="#C8C8C8"/>
<path d="M27.625 30.5364V5.46875L26.4115 0.546875H2.58852L1.375 5.40148V30.5364L0.828125 32.177V34.4531H28.1719V32.177L27.625 30.5364ZM2.46875 27.8906V11.4844H26.5312V27.8906H24.3438V28.9844H26.5312V30.0781H2.46875V28.9844H23.25V27.8906H2.46875ZM8.48438 6.01562V10.3906H2.46875V6.01562H8.48438ZM26.5312 10.3906H9.57812V6.01562H26.5312V10.3906ZM25.5573 1.64062L26.3776 4.92188H2.62242L3.44273 1.64062H25.5573ZM27.0781 33.3594H1.92188V32.3542L2.31617 31.1719H26.6844L27.0781 32.3542V33.3594Z" fill="#C8C8C8"/>
<path d="M14.5 14.7656C11.7864 14.7656 9.57812 16.9734 9.57812 19.6875C9.57812 22.4016 11.7864 24.6094 14.5 24.6094C16.1412 24.6094 17.6702 23.7748 18.5802 22.4219H21.6094V21.3281H18.875V18.0469H21.6094V16.9531H18.5802C17.6702 15.6002 16.1412 14.7656 14.5 14.7656ZM14.5 23.5156C12.3891 23.5156 10.6719 21.7979 10.6719 19.6875C10.6719 17.5771 12.3891 15.8594 14.5 15.8594C15.8415 15.8594 17.0911 16.573 17.7812 17.722V21.6535C17.0911 22.802 15.8415 23.5156 14.5 23.5156Z" fill="#C8C8C8"/>
<path d="M11.7656 8.75H12.96C13.1864 9.38492 13.788 9.84375 14.5 9.84375C15.212 9.84375 15.8136 9.38492 16.04 8.75H17.2344V7.65625H16.04C15.8136 7.02133 15.212 6.5625 14.5 6.5625C13.788 6.5625 13.1864 7.02133 12.96 7.65625H11.7656V8.75ZM14.5 7.65625C14.8013 7.65625 15.0469 7.90125 15.0469 8.20312C15.0469 8.505 14.8013 8.75 14.5 8.75C14.1987 8.75 13.9531 8.505 13.9531 8.20312C13.9531 7.90125 14.1987 7.65625 14.5 7.65625Z" fill="#C8C8C8"/>
<path d="M21.0625 7.65625H19.9688V8.75H21.0625V7.65625Z" fill="#C8C8C8"/>
<path d="M23.25 7.65625H22.1562V8.75H23.25V7.65625Z" fill="#C8C8C8"/>
<path d="M25.4375 7.65625H24.3438V8.75H25.4375V7.65625Z" fill="#C8C8C8"/>
<path d="M11.2188 2.73438H4.65625V3.82812H11.2188V2.73438Z" fill="#C8C8C8"/>
<path d="M13.4062 2.73438H12.3125V3.82812H13.4062V2.73438Z" fill="#C8C8C8"/>
<path d="M7.39062 7.65625H3.5625V8.75H7.39062V7.65625Z" fill="#C8C8C8"/>
</svg>
