<svg width="50" height="50" viewBox="0 0 46 50" fill="none" xmlns="http://www.w3.org/2000/svg">
<path d="M31.5318 14.6613C31.1213 14.6613 30.7885 14.3285 30.7885 13.9181V9.03438C30.7885 8.62384 31.1212 8.29102 31.5318 8.29102C31.9424 8.29102 32.2751 8.62384 32.2751 9.03438V13.9181C32.2751 14.3286 31.9424 14.6613 31.5318 14.6613Z" fill="#F07281"/>
<path d="M39.7858 14.6613C39.3753 14.6613 39.0425 14.3285 39.0425 13.9181V9.03438C39.0425 8.62384 39.3752 8.29102 39.7858 8.29102C40.1964 8.29102 40.5291 8.62384 40.5291 9.03438V13.9181C40.5291 14.3286 40.1964 14.6613 39.7858 14.6613Z" fill="#F07281"/>
<path d="M43.4885 50.0003C44.0523 50.0003 44.4442 49.4454 44.2599 48.914C42.3808 43.5 42.2591 39.2144 42.5497 36.1851C42.989 31.6055 44.6177 27.3175 42.1669 23.9894C41.2736 22.7766 40.1781 22.1523 40.0614 20.6548C39.8863 18.4099 42.1695 17.5228 41.9756 15.224C41.86 13.8546 40.8767 12.1182 39.2958 11.8894C37.8957 11.6866 36.3198 12.7088 35.659 14.4618C34.9983 12.7087 33.4223 11.6865 32.0222 11.8894C30.4413 12.1183 29.458 13.8547 29.3424 15.224C29.1485 17.5228 31.4316 18.4099 31.2565 20.6548C31.1397 22.1523 30.0442 22.7766 29.151 23.9894C26.7001 27.3175 28.3289 31.6055 28.7682 36.1851C29.0587 39.2144 28.9371 43.5 27.0579 48.914C26.8735 49.4454 27.2655 50.0003 27.8293 50.0003H43.4885Z" fill="#F58A97"/>
<path d="M44.2597 48.9137C42.3807 43.4997 42.259 39.2141 42.5496 36.1848C42.9889 31.6052 44.6176 27.3172 42.1668 23.9892C41.2735 22.7763 40.178 22.1521 40.0613 20.6544C39.8862 18.4095 42.1693 17.5224 41.9754 15.2236C41.8598 13.8542 40.8765 12.1179 39.2956 11.889C38.6646 11.7976 37.9981 11.9557 37.3955 12.3167C38.3421 12.9665 38.9155 14.198 39.0021 15.2236C39.1961 17.5224 36.913 18.4095 37.0881 20.6544C37.2048 22.1521 38.3003 22.7762 39.1935 23.9892C41.6444 27.3172 40.0156 31.6052 39.5764 36.1848C39.2858 39.2141 39.4074 43.4997 41.2865 48.9137C41.471 49.445 41.0789 50 40.5151 50H43.4884C44.0521 50 44.4442 49.4451 44.2597 48.9137Z" fill="#F07281"/>
<path d="M31.2225 19.9111C31.2624 20.1432 31.277 20.3891 31.2563 20.6544C31.235 20.9285 31.1806 21.1731 31.1008 21.3978H40.2168C40.1371 21.1732 40.0826 20.9286 40.0613 20.6544C40.0406 20.3891 40.0553 20.1432 40.0951 19.9111H31.2225Z" fill="#F07281"/>
<path d="M44.9049 10.0717L36.3343 7.01367V5.55625C37.7389 5.4877 38.8603 4.32715 38.8603 2.91035V2.72266C38.8603 1.22139 37.635 0 36.1288 0H35.9708C34.4647 0 33.2393 1.22139 33.2393 2.72266C33.2393 3.1332 33.572 3.46592 33.9825 3.46592C34.3931 3.46592 34.7259 3.13311 34.7259 2.72266C34.7259 2.04111 35.2844 1.48662 35.9708 1.48662H36.1288C36.8152 1.48662 37.3736 2.04111 37.3736 2.72266V2.91045C37.3736 3.55137 36.8484 4.07285 36.2027 4.07285C35.4556 4.07285 34.8477 4.67949 34.8477 5.4252V7.06211L26.4128 10.0718C26.0262 10.2098 25.8245 10.6351 25.9625 11.0217C26.1004 11.4083 26.5257 11.6096 26.9124 11.472L35.6588 8.35117L44.4053 11.472C44.4878 11.5015 44.5722 11.5154 44.6551 11.5154C44.9605 11.5154 45.2466 11.3258 45.3551 11.0217C45.4932 10.635 45.2916 10.2097 44.9049 10.0717Z" fill="#E19974"/>
<path d="M6.21403 14.6613C5.80348 14.6613 5.47076 14.3285 5.47076 13.9181V9.03438C5.47076 8.62384 5.80348 8.29102 6.21403 8.29102C6.62457 8.29102 6.95739 8.62384 6.95739 9.03438V13.9181C6.95739 14.3286 6.62457 14.6613 6.21403 14.6613Z" fill="#978ECB"/>
<path d="M14.468 14.6613C14.0575 14.6613 13.7247 14.3285 13.7247 13.9181V9.03438C13.7247 8.62384 14.0574 8.29102 14.468 8.29102C14.8786 8.29102 15.2113 8.62384 15.2113 9.03438V13.9181C15.2114 14.3286 14.8787 14.6613 14.468 14.6613Z" fill="#978ECB"/>
<path d="M18.1707 50.0003C18.7344 50.0003 19.1264 49.4454 18.9421 48.914C17.063 43.5 16.9413 39.2144 17.2319 36.1851C17.6712 31.6055 19.2999 27.3175 16.8491 23.9894C15.9558 22.7766 14.8603 22.1523 14.7436 20.6548C14.5685 18.4099 16.8517 17.5228 16.6578 15.224C16.5422 13.8546 15.5589 12.1182 13.978 11.8894C12.5779 11.6866 11.0019 12.7088 10.3412 14.4618C9.68044 12.7087 8.10447 11.6865 6.70437 11.8894C5.12351 12.1183 4.14021 13.8547 4.02459 15.224C3.83064 17.5228 6.11375 18.4099 5.93865 20.6548C5.82185 22.1523 4.72634 22.7766 3.83318 23.9894C1.3823 27.3175 3.01111 31.6055 3.45037 36.1851C3.74089 39.2144 3.61931 43.5 1.74011 48.914C1.55564 49.4454 1.94773 50.0003 2.5115 50.0003H18.1707Z" fill="#ACA6D6"/>
<path d="M18.9421 48.9137C17.063 43.4997 16.9413 39.2141 17.2319 36.1848C17.6712 31.6052 19.2999 27.3172 16.8491 23.9892C15.9558 22.7763 14.8603 22.1521 14.7436 20.6544C14.5685 18.4095 16.8516 17.5224 16.6577 15.2236C16.5421 13.8542 15.5588 12.1179 13.9779 11.889C13.347 11.7976 12.6805 11.9557 12.0778 12.3167C13.0244 12.9665 13.5978 14.198 13.6845 15.2236C13.8784 17.5224 11.5953 18.4095 11.7704 20.6544C11.8871 22.1521 12.9826 22.7762 13.8759 23.9892C16.3267 27.3172 14.6979 31.6052 14.2587 36.1848C13.9681 39.2141 14.0897 43.4997 15.9688 48.9137C16.1533 49.445 15.7612 50 15.1974 50H18.1707C18.7345 50 19.1264 49.4451 18.9421 48.9137Z" fill="#978ECB"/>
<path d="M5.90486 19.9111C5.9447 20.1432 5.95935 20.3891 5.93865 20.6544C5.91726 20.9285 5.86287 21.1731 5.78308 21.3978H14.899C14.8193 21.1732 14.7648 20.9286 14.7435 20.6544C14.7228 20.3891 14.7374 20.1432 14.7773 19.9111H5.90486Z" fill="#978ECB"/>
<path d="M19.5872 10.0717L11.0165 7.01367V5.55625C12.4211 5.4877 13.5425 4.32715 13.5425 2.91035V2.72266C13.5425 1.22139 12.3172 0 10.811 0H10.653C9.14686 0 7.92147 1.22139 7.92147 2.72266C7.92147 3.1332 8.25418 3.46592 8.66473 3.46592C9.07528 3.46592 9.40809 3.13311 9.40809 2.72266C9.40809 2.04111 9.96649 1.48662 10.653 1.48662H10.811C11.4974 1.48662 12.0558 2.04111 12.0558 2.72266V2.91045C12.0558 3.55137 11.5306 4.07285 10.8849 4.07285C10.1378 4.07285 9.52987 4.67949 9.52987 5.4252V7.06211L1.095 10.0718C0.708384 10.2098 0.506724 10.6351 0.64481 11.0217C0.7827 11.4083 1.20799 11.6096 1.59461 11.472L10.341 8.35117L19.0875 11.472C19.17 11.5015 19.2544 11.5154 19.3373 11.5154C19.6427 11.5154 19.9288 11.3258 20.0373 11.0217C20.1754 10.635 19.9738 10.2097 19.5872 10.0717Z" fill="#E19974"/>
</svg>
